<svg xmlns="http://www.w3.org/2000/svg" viewBox="0 0 218.61 49.99"><g id="레이어_2"><g id="Layer_1"><path d="M174.36,18.5h10.93V16.44H173.85a3.06,3.06,0,0,0-3.06,3.06V30.83a3.06,3.06,0,0,0,3.06,3.06h11.44V31.83H174.36a1,1,0,0,1-1-1V25.64h11.33V23.59H173.34V19.52A1,1,0,0,1,174.36,18.5Z" style="fill:#ed1b23"></path><path d="M194.91,24.67h0c2.55-1.27,3.56-2.66,3.56-4.4a3.47,3.47,0,0,0-3.68-3.54,4,4,0,0,0-4.21,4.12,5.68,5.68,0,0,0,1.34,3.42,5.41,5.41,0,0,0-3.17,4.79c0,2.48,1.88,4.65,5.08,4.65h0a6.77,6.77,0,0,0,4.74-1.8l1.48,1.53h2.76l-2.77-3a8.91,8.91,0,0,0,1.62-3.31h-2.1a4.84,4.84,0,0,1-.81,1.9Zm-.29-6.3a1.83,1.83,0,0,1,1.81,2c0,1.32-1,2.16-2.63,3a4.28,4.28,0,0,1-1.11-2.75A2,2,0,0,1,194.62,18.37Zm2.79,12.19a4.45,4.45,0,0,1-3.2,1.37A3.1,3.1,0,0,1,191,28.75a3.86,3.86,0,0,1,2-3.2Z" style="fill:#ed1b23"></path><path d="M207.25,22.16a3.52,3.52,0,0,1,3.66-3.65h7.7V16.44h-8.32a5.6,5.6,0,0,0-5.6,5.59V28.3a5.6,5.6,0,0,0,5.6,5.59h8.32V31.82h-7.7a3.53,3.53,0,0,1-3.66-3.66Z" style="fill:#ed1b23"></path><path d="M89.43,15.75c-6.85,0-11,4.24-11,9.47s4.1,9.47,11,9.47,11-4.24,11-9.47S96.29,15.75,89.43,15.75Zm0,16.9c-3.28,0-5.77-3.33-5.77-7.43s2.49-7.43,5.77-7.43,5.79,3.32,5.79,7.43S92.73,32.65,89.43,32.65Z" style="fill:#ed1b23"></path><polygon points="101.34 18.55 108.55 18.55 108.55 33.9 113.99 33.9 113.99 18.55 120.08 18.55 120.08 16.45 101.34 16.45 101.34 18.55" style="fill:#ed1b23"></polygon><polygon points="122.06 18.55 128.15 18.55 128.15 33.9 133.58 33.9 133.58 18.55 140.81 18.55 140.81 16.45 122.06 16.45 122.06 18.55" style="fill:#ed1b23"></polygon><path d="M67.65,30.76V16.45H62.43V31.82a2.07,2.07,0,0,0,2.08,2.07H77.85V31.8H68.69A1,1,0,0,1,67.65,30.76Z" style="fill:#ed1b23"></path><path d="M143.76,18.53V31.82a2.08,2.08,0,0,0,2.08,2.07h14.22V31.84H150A1,1,0,0,1,149,30.79V25.66H159.9V23.61H149V19.55a1,1,0,0,1,1.05-1h10V16.45H145.84A2.08,2.08,0,0,0,143.76,18.53Z" style="fill:#ed1b23"></path><path d="M17.6,3H32.39A14.56,14.56,0,0,1,46.94,17.6V32.39A14.56,14.56,0,0,1,32.39,46.94H17.6A14.56,14.56,0,0,1,3,32.39V17.6A14.55,14.55,0,0,1,17.6,3Z" transform="translate(-10.35 24.99) rotate(-45)" style="fill:#ed1b23"></path><path d="M18.79,40.36a1.55,1.55,0,0,1-1.13-2.6,1.54,1.54,0,0,1,2.68,1,1.54,1.54,0,0,1-1.48,1.6Z" style="fill:#fff"></path><path d="M24.42,11.81a2.83,2.83,0,0,0-2.08.81c-1.18,1.18-1.81,3.61-1.75,6.85.07,4,1,11.83,4.16,15.86a6.72,6.72,0,0,0,1.62,1.55,3.63,3.63,0,0,0,2.15.72,4.08,4.08,0,0,0,.83-.08c1.81-.43,4.06-2.43,5.74-5.1a1.36,1.36,0,0,1,1.17-.65A1.48,1.48,0,0,1,37,32a1.41,1.41,0,0,1,.44,1.92c-2.13,3.37-4.93,5.74-7.5,6.33,0,0,0,0-.06,0a8.25,8.25,0,0,1-1.38.13,6.45,6.45,0,0,1-3.66-1.18A9.83,9.83,0,0,1,22.56,37c-4.42-5.68-4.73-16.33-4.74-17.52-.05-2.83.35-6.67,2.57-8.87a5.51,5.51,0,0,1,4-1.61h.25a5.51,5.51,0,0,1,4,1.61c2.21,2.2,2.62,6,2.57,8.87a28.61,28.61,0,0,1-3.65,13.79,1.39,1.39,0,0,1-1.19.68,1.36,1.36,0,0,1-.71-.2,1.39,1.39,0,0,1-.48-1.9,24.06,24.06,0,0,0,3.26-12.42c.05-3.24-.57-5.67-1.75-6.85a2.83,2.83,0,0,0-2.08-.81Z" style="fill:#fff"></path></g></g></svg>